<svg xmlns="http://www.w3.org/2000/svg" xmlns:xlink="http://www.w3.org/1999/xlink" width="769" zoomAndPan="magnify" viewBox="0 0 576.75 576.749988" height="769" preserveAspectRatio="xMidYMid meet" version="1.0"><defs><clipPath id="7887407620"><path d="M 0 0 L 576.410156 0 L 576.410156 576.410156 L 0 576.410156 Z M 0 0 " clip-rule="nonzero"/></clipPath><clipPath id="ebd81dd320"><path d="M 288.207031 0 C 129.035156 0 0 129.035156 0 288.207031 C 0 447.375 129.035156 576.410156 288.207031 576.410156 C 447.375 576.410156 576.410156 447.375 576.410156 288.207031 C 576.410156 129.035156 447.375 0 288.207031 0 Z M 288.207031 0 " clip-rule="nonzero"/></clipPath><clipPath id="13b443697b"><path d="M 101.699219 88.605469 L 474.417969 88.605469 L 474.417969 527.984375 L 101.699219 527.984375 Z M 101.699219 88.605469 " clip-rule="nonzero"/></clipPath></defs><g clip-path="url(#7887407620)"><g clip-path="url(#ebd81dd320)"><path fill="#009c8c" d="M 0 0 L 576.410156 0 L 576.410156 576.410156 L 0 576.410156 Z M 0 0 " fill-opacity="1" fill-rule="nonzero"/></g></g><path fill="#01473f" d="M 380.714844 285.992188 C 375.167969 283.71875 368.828125 286.371094 366.558594 291.914062 C 344.023438 346.863281 310.269531 356.480469 295.972656 358 C 291.085938 358.527344 285.890625 358.527344 280.996094 358.066406 C 267.078125 356.757812 232.691406 347.671875 209.828125 291.914062 C 207.550781 286.371094 201.210938 283.722656 195.667969 285.992188 C 190.121094 288.265625 187.46875 294.605469 189.742188 300.152344 C 220.164062 374.335938 270.753906 379.960938 285.367188 379.960938 C 286.570312 379.960938 287.507812 379.921875 288.191406 379.875 C 288.875 379.921875 289.808594 379.960938 291.011719 379.960938 C 305.628906 379.960938 356.21875 374.335938 386.636719 300.152344 C 388.914062 294.605469 386.261719 288.265625 380.714844 285.992188 " fill-opacity="1" fill-rule="nonzero"/><path fill="#ffffff" d="M 195.667969 285.992188 C 197.410156 285.277344 199.222656 285.101562 200.972656 285.296875 C 195.859375 269.574219 189.210938 239.792969 200.53125 213.390625 C 204.570312 203.964844 214.515625 188.769531 236.816406 185.902344 C 239.476562 189.953125 245.292969 192.578125 252.566406 192.578125 C 262.609375 192.578125 269.902344 189.96875 269.902344 180.714844 C 269.902344 172.234375 262.609375 168.847656 252.566406 168.847656 C 244.878906 168.847656 238.816406 171.777344 236.386719 176.230469 C 215.914062 178.664062 199.839844 190.515625 191.660156 209.589844 C 178.941406 239.261719 186.242188 271.667969 191.863281 288.648438 C 192.902344 287.535156 194.164062 286.605469 195.667969 285.992188 " fill-opacity="1" fill-rule="nonzero"/><path fill="#ffffff" d="M 380.714844 285.992188 C 382.214844 286.605469 383.480469 287.535156 384.519531 288.648438 C 390.140625 271.667969 397.441406 239.257812 384.71875 209.589844 C 376.542969 190.515625 360.46875 178.664062 339.996094 176.230469 C 337.566406 171.777344 331.503906 168.847656 323.816406 168.847656 C 313.769531 168.847656 306.480469 172.234375 306.480469 180.714844 C 306.480469 189.96875 313.769531 192.578125 323.816406 192.578125 C 331.089844 192.578125 336.898438 189.953125 339.566406 185.902344 C 361.867188 188.769531 371.8125 203.964844 375.851562 213.390625 C 387.148438 239.738281 380.496094 269.554688 375.394531 285.296875 C 377.148438 285.097656 378.964844 285.273438 380.714844 285.992188 " fill-opacity="1" fill-rule="nonzero"/><g clip-path="url(#13b443697b)"><path fill="#ffffff" d="M 278.804688 478.238281 C 281.527344 476.53125 284.738281 475.523438 288.191406 475.523438 C 297.957031 475.523438 305.878906 483.445312 305.878906 493.210938 C 305.878906 502.980469 297.957031 510.898438 288.191406 510.898438 C 279.28125 510.898438 271.929688 504.304688 270.703125 495.734375 C 270.585938 494.910156 270.503906 494.070312 270.503906 493.210938 C 270.503906 486.894531 273.824219 481.371094 278.804688 478.238281 Z M 474.085938 140.96875 L 473.726562 136.003906 L 469.46875 133.421875 C 466.453125 131.589844 394.386719 88.605469 288.191406 88.605469 C 181.992188 88.605469 109.925781 131.589844 106.910156 133.421875 L 102.65625 136.003906 L 102.296875 140.96875 C 102.09375 143.761719 97.535156 210.355469 117.285156 288.375 C 140.339844 379.445312 187.316406 447.320312 254.046875 486.714844 C 253.648438 488.820312 253.417969 490.988281 253.417969 493.210938 C 253.417969 512.417969 268.984375 527.984375 288.191406 527.984375 C 307.394531 527.984375 322.964844 512.417969 322.964844 493.210938 C 322.964844 474.011719 307.394531 458.441406 288.191406 458.441406 C 278.144531 458.441406 269.121094 462.726562 262.773438 469.539062 C 200.660156 432.789062 158.113281 370.589844 136.121094 284.15625 C 120.078125 221.101562 120.664062 164.40625 121.292969 147.476562 C 138.066406 138.511719 201.671875 107.902344 288.191406 107.902344 C 374.472656 107.902344 438.292969 138.539062 455.09375 147.492188 C 455.726562 164.363281 456.328125 220.679688 440.390625 283.640625 C 434.789062 305.765625 427.835938 326.296875 419.5625 345.230469 C 415.792969 353.863281 411.5625 362.207031 406.605469 370.242188 C 395.289062 388.578125 381.828125 402.875 367.585938 409.996094 C 343.796875 421.902344 305.175781 420.25 298.070312 386.953125 C 297.539062 384.484375 297.242188 382.015625 297.078125 379.664062 C 294.679688 379.878906 292.617188 379.960938 291.011719 379.960938 C 289.808594 379.960938 288.875 379.921875 288.191406 379.875 C 287.507812 379.921875 286.570312 379.960938 285.367188 379.960938 C 283.4375 379.960938 280.859375 379.855469 277.800781 379.511719 C 277.972656 383.0625 278.375 386.890625 279.15625 390.765625 C 282.328125 406.488281 292.039062 421.855469 307.285156 429.296875 C 320.132812 435.5625 336.28125 436.527344 350.214844 434.714844 C 380.898438 430.726562 405.308594 408.984375 421.074219 383.4375 C 426.515625 374.613281 431.238281 365.804688 435.523438 356.375 C 445.039062 335.4375 452.929688 312.742188 459.09375 288.375 C 478.84375 210.355469 474.289062 143.761719 474.085938 140.96875 " fill-opacity="1" fill-rule="nonzero"/></g></svg>